<svg width="20" height="19" viewBox="0 0 20 19" fill="none" xmlns="http://www.w3.org/2000/svg">
<g id="Emoji">
<path id="Vector" d="M15.4631 18.7858C15.2254 18.7858 14.9889 18.715 14.7854 18.574L10.0001 15.2432L5.21484 18.574C4.8072 18.8571 4.26014 18.8571 3.85484 18.5694C3.44955 18.2845 3.27896 17.7787 3.43073 17.3168L5.21543 11.7264L0.473083 8.48298C0.0701424 8.19466 -0.0975045 7.68769 0.056613 7.22524C0.211907 6.76394 0.654259 6.4505 1.15426 6.44708L7.02778 6.43852L8.89778 0.986809C9.05542 0.524935 9.49954 0.214355 10.0001 0.214355C10.5007 0.214355 10.9448 0.525506 11.1031 0.986809L12.9413 6.43852L18.8448 6.44708C19.3466 6.4505 19.7895 6.76451 19.9431 7.22524C20.0978 7.68769 19.9301 8.19466 19.5266 8.48298L14.7842 11.7264L16.5689 17.3168C16.7219 17.7787 16.5495 18.2845 16.1454 18.5694C15.9413 18.7144 15.7025 18.7858 15.4631 18.7858Z" fill="#FFAC33"/>
</g>
</svg>
