<svg width="10" height="14" viewBox="0 0 10 14" fill="none" xmlns="http://www.w3.org/2000/svg">
<path d="M5 3.60938C4.58899 3.60938 4.1872 3.73125 3.84546 3.9596C3.50371 4.18795 3.23735 4.51251 3.08006 4.89224C2.92277 5.27196 2.88162 5.68981 2.96181 6.09292C3.04199 6.49604 3.23991 6.86633 3.53054 7.15696C3.82117 7.44759 4.19146 7.64551 4.59458 7.72569C4.99769 7.80588 5.41554 7.76473 5.79526 7.60744C6.17499 7.45015 6.49955 7.18379 6.7279 6.84204C6.95624 6.5003 7.07812 6.09851 7.07812 5.6875C7.07812 5.13635 6.85918 4.60777 6.46946 4.21804C6.07973 3.82832 5.55115 3.60938 5 3.60938ZM5 7.10938C4.71878 7.10938 4.44387 7.02598 4.21005 6.86975C3.97622 6.71351 3.79398 6.49144 3.68636 6.23163C3.57874 5.97181 3.55058 5.68592 3.60545 5.41011C3.66031 5.13429 3.79573 4.88094 3.99458 4.68208C4.19344 4.48323 4.44679 4.34781 4.72261 4.29295C4.99842 4.23808 5.28431 4.26624 5.54413 4.37386C5.80394 4.48148 6.02601 4.66372 6.18225 4.89755C6.33848 5.13138 6.42188 5.40628 6.42188 5.6875C6.42188 6.06461 6.27207 6.42626 6.00542 6.69292C5.73876 6.95957 5.3771 7.10938 5 7.10938ZM5 0.984375C3.7531 0.985822 2.55768 1.48179 1.67599 2.36349C0.794294 3.24518 0.298322 4.4406 0.296875 5.6875C0.296875 7.37789 1.08109 9.17328 2.56477 10.8795C3.23442 11.6534 3.98809 12.3504 4.81187 12.9577C4.86702 12.9962 4.9327 13.0169 5 13.0169C5.0673 13.0169 5.13298 12.9962 5.18813 12.9577C6.01191 12.3504 6.76558 11.6534 7.43523 10.8795C8.91891 9.17328 9.70312 7.37953 9.70312 5.6875C9.70168 4.4406 9.20571 3.24518 8.32401 2.36349C7.44232 1.48179 6.2469 0.985822 5 0.984375ZM5 12.2779C4.17969 11.6446 0.953125 8.94797 0.953125 5.6875C0.953125 4.6142 1.37949 3.58486 2.13843 2.82593C2.89736 2.06699 3.9267 1.64063 5 1.64063C6.0733 1.64063 7.10264 2.06699 7.86157 2.82593C8.62051 3.58486 9.04688 4.6142 9.04688 5.6875C9.04688 8.94797 5.82031 11.6446 5 12.2779Z" fill="#070707"/>
</svg>
