<svg width="227" height="39" viewBox="0 0 227 39" fill="none" xmlns="http://www.w3.org/2000/svg">
<rect x="38.179" y="19.3932" width="13.5" height="13.5" transform="rotate(135.911 38.179 19.3932)" fill="#2F65CE"/>
<rect x="28.7861" y="9.69656" width="13.5" height="13.5" transform="rotate(135.911 28.7861 9.69656)" fill="#6095C6"/>
<rect x="28.4824" y="28.786" width="13.5" height="13.5" transform="rotate(135.911 28.4824 28.786)" fill="#190F0F"/>
<rect x="28.4824" y="28.786" width="13.5" height="13.5" transform="rotate(135.911 28.4824 28.786)" fill="#B2D3FA"/>
<path d="M52.553 26.0895V12.4395H55.478V26.0895H52.553ZM43.9535 26.0895V12.4395H46.8785V26.0895H43.9535ZM45.1235 20.61L45.143 17.958H54.0545V20.61H45.1235ZM59.0355 26.0895V12.4395H68.259V15.0135H61.8825V23.5155H68.3955V26.0895H59.0355ZM60.4005 20.376V17.88H67.323V20.376H60.4005ZM69.7949 26.0895L75.1379 12.4395H77.7509L83.0744 26.0895H80.0714L77.3219 18.738C77.2439 18.53 77.1464 18.2635 77.0294 17.9385C76.9254 17.6135 76.8149 17.269 76.6979 16.905C76.5809 16.541 76.4704 16.1965 76.3664 15.8715C76.2624 15.5335 76.1844 15.254 76.1324 15.033L76.6589 15.0135C76.5809 15.3125 76.4899 15.6245 76.3859 15.9495C76.2949 16.2615 76.1974 16.5865 76.0934 16.9245C75.9894 17.2495 75.8789 17.568 75.7619 17.88C75.6449 18.192 75.5344 18.4975 75.4304 18.7965L72.6809 26.0895H69.7949ZM72.2714 23.223L73.2269 20.8635H79.4864L80.4614 23.223H72.2714ZM84.9911 26.0895V12.4395H87.9161V23.457H94.0976V26.0895H84.9911ZM98.026 26.0895V15.072H94.048V12.4395H105.046V15.072H100.951V26.0895H98.026ZM116.061 26.0895V12.4395H118.986V26.0895H116.061ZM107.462 26.0895V12.4395H110.387V26.0895H107.462ZM108.632 20.61L108.651 17.958H117.563V20.61H108.632Z" fill="#123780"/>
<path d="M134.51 26.2845C133.509 26.2845 132.586 26.1155 131.741 25.7775C130.909 25.4265 130.181 24.939 129.557 24.315C128.946 23.678 128.471 22.9305 128.133 22.0725C127.795 21.2015 127.626 20.2525 127.626 19.2255C127.626 18.2245 127.802 17.3015 128.153 16.4565C128.504 15.5985 128.998 14.8575 129.635 14.2335C130.272 13.5965 131.019 13.1025 131.877 12.7515C132.735 12.4005 133.665 12.225 134.666 12.225C135.316 12.225 135.953 12.316 136.577 12.498C137.214 12.667 137.792 12.9205 138.312 13.2585C138.845 13.5965 139.3 13.9995 139.677 14.4675L137.844 16.4955C137.532 16.1835 137.207 15.917 136.869 15.696C136.544 15.462 136.193 15.2865 135.816 15.1695C135.452 15.0395 135.062 14.9745 134.646 14.9745C134.087 14.9745 133.561 15.0785 133.067 15.2865C132.586 15.4945 132.163 15.787 131.799 16.164C131.435 16.528 131.143 16.9765 130.922 17.5095C130.714 18.0295 130.61 18.608 130.61 19.245C130.61 19.895 130.714 20.4865 130.922 21.0195C131.13 21.5395 131.422 21.988 131.799 22.365C132.176 22.729 132.625 23.015 133.145 23.223C133.678 23.418 134.263 23.5155 134.9 23.5155C135.316 23.5155 135.719 23.457 136.109 23.34C136.499 23.223 136.856 23.0605 137.181 22.8525C137.519 22.6445 137.818 22.404 138.078 22.131L139.502 24.4125C139.19 24.7635 138.767 25.082 138.234 25.368C137.714 25.654 137.129 25.8815 136.479 26.0505C135.829 26.2065 135.173 26.2845 134.51 26.2845ZM148.013 26.2845C147.012 26.2845 146.089 26.109 145.244 25.758C144.399 25.407 143.658 24.9195 143.021 24.2955C142.397 23.6585 141.916 22.911 141.578 22.053C141.24 21.182 141.071 20.2395 141.071 19.2255C141.071 18.1985 141.24 17.2625 141.578 16.4175C141.916 15.5595 142.397 14.812 143.021 14.175C143.658 13.538 144.399 13.044 145.244 12.693C146.089 12.342 147.012 12.1665 148.013 12.1665C149.027 12.1665 149.95 12.342 150.782 12.693C151.627 13.044 152.361 13.538 152.985 14.175C153.622 14.812 154.11 15.5595 154.448 16.4175C154.786 17.2755 154.955 18.2115 154.955 19.2255C154.955 20.2395 154.786 21.1755 154.448 22.0335C154.11 22.8915 153.622 23.639 152.985 24.276C152.361 24.913 151.627 25.407 150.782 25.758C149.95 26.109 149.027 26.2845 148.013 26.2845ZM148.013 23.5155C148.585 23.5155 149.111 23.4115 149.592 23.2035C150.086 22.9955 150.509 22.6965 150.86 22.3065C151.211 21.9165 151.484 21.4615 151.679 20.9415C151.887 20.4215 151.991 19.8495 151.991 19.2255C151.991 18.6015 151.887 18.0295 151.679 17.5095C151.484 16.9895 151.211 16.541 150.86 16.164C150.509 15.774 150.086 15.475 149.592 15.267C149.111 15.046 148.585 14.9355 148.013 14.9355C147.441 14.9355 146.914 15.046 146.433 15.267C145.952 15.475 145.53 15.774 145.166 16.164C144.802 16.541 144.522 16.9895 144.327 17.5095C144.145 18.0295 144.054 18.6015 144.054 19.2255C144.054 19.8495 144.145 20.4215 144.327 20.9415C144.522 21.4615 144.802 21.9165 145.166 22.3065C145.53 22.6965 145.952 22.9955 146.433 23.2035C146.914 23.4115 147.441 23.5155 148.013 23.5155ZM157.602 26.0895V12.4395H160.215L167.761 22.638H167.215C167.163 22.235 167.118 21.845 167.079 21.468C167.04 21.078 167.001 20.688 166.962 20.298C166.936 19.895 166.91 19.4855 166.884 19.0695C166.871 18.6405 166.858 18.192 166.845 17.724C166.832 17.243 166.825 16.723 166.825 16.164V12.4395H169.692V26.0895H167.04L159.337 15.7935L160.078 15.813C160.143 16.489 160.195 17.0675 160.234 17.5485C160.286 18.0165 160.325 18.426 160.351 18.777C160.377 19.128 160.397 19.4335 160.41 19.6935C160.436 19.9535 160.449 20.2005 160.449 20.4345C160.462 20.6685 160.468 20.9155 160.468 21.1755V26.0895H157.602ZM173.236 26.0895V12.4395H175.849L183.396 22.638H182.85C182.798 22.235 182.752 21.845 182.713 21.468C182.674 21.078 182.635 20.688 182.596 20.298C182.57 19.895 182.544 19.4855 182.518 19.0695C182.505 18.6405 182.492 18.192 182.479 17.724C182.466 17.243 182.46 16.723 182.46 16.164V12.4395H185.326V26.0895H182.674L174.972 15.7935L175.713 15.813C175.778 16.489 175.83 17.0675 175.869 17.5485C175.921 18.0165 175.96 18.426 175.986 18.777C176.012 19.128 176.031 19.4335 176.044 19.6935C176.07 19.9535 176.083 20.2005 176.083 20.4345C176.096 20.6685 176.103 20.9155 176.103 21.1755V26.0895H173.236ZM188.87 26.0895V12.4395H198.094V15.0135H191.717V23.5155H198.23V26.0895H188.87ZM190.235 20.376V17.88H197.158V20.376H190.235ZM207.235 26.2845C206.234 26.2845 205.311 26.1155 204.466 25.7775C203.634 25.4265 202.906 24.939 202.282 24.315C201.671 23.678 201.196 22.9305 200.858 22.0725C200.52 21.2015 200.351 20.2525 200.351 19.2255C200.351 18.2245 200.527 17.3015 200.878 16.4565C201.229 15.5985 201.723 14.8575 202.36 14.2335C202.997 13.5965 203.744 13.1025 204.602 12.7515C205.46 12.4005 206.39 12.225 207.391 12.225C208.041 12.225 208.678 12.316 209.302 12.498C209.939 12.667 210.517 12.9205 211.037 13.2585C211.57 13.5965 212.025 13.9995 212.402 14.4675L210.569 16.4955C210.257 16.1835 209.932 15.917 209.594 15.696C209.269 15.462 208.918 15.2865 208.541 15.1695C208.177 15.0395 207.787 14.9745 207.371 14.9745C206.812 14.9745 206.286 15.0785 205.792 15.2865C205.311 15.4945 204.888 15.787 204.524 16.164C204.16 16.528 203.868 16.9765 203.647 17.5095C203.439 18.0295 203.335 18.608 203.335 19.245C203.335 19.895 203.439 20.4865 203.647 21.0195C203.855 21.5395 204.147 21.988 204.524 22.365C204.901 22.729 205.35 23.015 205.87 23.223C206.403 23.418 206.988 23.5155 207.625 23.5155C208.041 23.5155 208.444 23.457 208.834 23.34C209.224 23.223 209.581 23.0605 209.906 22.8525C210.244 22.6445 210.543 22.404 210.803 22.131L212.227 24.4125C211.915 24.7635 211.492 25.082 210.959 25.368C210.439 25.654 209.854 25.8815 209.204 26.0505C208.554 26.2065 207.898 26.2845 207.235 26.2845ZM217.54 26.0895V15.072H213.562V12.4395H224.56V15.072H220.465V26.0895H217.54Z" fill="#4F4D4D"/>
</svg>
